<?xml version="1.0" standalone="no"?>
<!DOCTYPE svg PUBLIC "-//W3C//DTD SVG 20010904//EN"
 "http://www.w3.org/TR/2001/REC-SVG-20010904/DTD/svg10.dtd">
<svg version="1.0" xmlns="http://www.w3.org/2000/svg"
 width="1280.000000pt" height="1188.000000pt" viewBox="0 0 1280.000000 1188.000000"
 preserveAspectRatio="xMidYMid meet">
<metadata>
Created by potrace 1.15, written by Peter Selinger 2001-2017
</metadata>
<g transform="translate(0.000000,1188.000000) scale(0.100000,-0.100000)"
fill="#ff5722" stroke="none">
<path d="M7150 11713 c-30 -85 -58 -157 -62 -160 -5 -2 -8 30 -8 71 0 42 -3
76 -7 76 -5 0 -58 -118 -120 -263 -62 -144 -207 -482 -323 -752 -116 -269
-258 -598 -315 -730 -439 -1021 -741 -1723 -821 -1909 -52 -120 -97 -223 -100
-227 -2 -4 -91 85 -197 199 -1004 1084 -1440 1552 -1443 1549 -2 -2 1 -578 7
-1281 6 -703 8 -1280 6 -1283 -3 -2 -122 38 -264 90 -142 53 -571 211 -953
352 -382 141 -906 335 -1165 430 -258 96 -672 248 -919 339 -247 91 -453 166
-458 166 -4 0 -8 -11 -8 -24 0 -18 147 -164 647 -642 356 -341 969 -927 1363
-1303 393 -376 716 -687 718 -691 1 -3 -352 -197 -785 -429 -434 -233 -792
-427 -796 -431 -5 -4 54 -29 130 -55 76 -26 442 -150 813 -276 860 -293 795
-269 773 -284 -10 -7 -637 -382 -1393 -835 -756 -452 -1381 -828 -1388 -835
-10 -9 -1 -11 45 -8 l58 4 -90 -51 -90 -51 165 5 c936 30 3611 108 3615 105 2
-3 22 -484 45 -1069 22 -586 43 -1132 48 -1215 l7 -150 35 52 c19 29 38 53 41
53 3 0 7 -30 8 -68 1 -37 5 -92 9 -122 l7 -55 296 365 c162 201 529 653 814
1005 285 352 521 640 525 640 4 0 229 -196 500 -435 271 -239 502 -443 514
-452 l23 -17 50 122 c28 67 110 266 183 442 73 176 134 321 135 323 1 2 444
-263 985 -588 540 -326 983 -590 985 -588 3 3 -49 983 -60 1126 -4 51 -2 82 4
82 5 0 625 -250 1378 -556 1389 -564 1409 -573 2072 -898 l174 -85 -54 56
c-30 31 -47 53 -39 51 8 -3 62 -25 120 -48 58 -23 128 -51 155 -62 l50 -20
-26 29 c-15 15 -630 675 -1368 1467 l-1341 1438 112 77 c62 42 513 346 1002
676 l889 600 -63 14 -63 13 39 24 c21 13 42 24 47 24 4 0 7 4 7 8 0 5 -64 18
-142 30 -79 12 -433 67 -788 122 -355 55 -764 119 -910 141 -146 22 -273 43
-283 47 -14 6 194 218 1018 1042 569 569 1035 1035 1035 1035 0 0 -33 -2 -72
-6 -40 -3 -74 -5 -76 -4 -1 2 21 23 49 49 28 26 50 48 48 50 -2 1 -227 -35
-499 -80 -1379 -230 -2692 -445 -2695 -442 -1 2 33 134 75 293 72 271 120 452
382 1440 55 209 131 494 168 633 37 138 64 252 60 252 -3 0 -25 -16 -48 -36
-47 -40 -50 -36 -23 36 11 27 17 50 15 50 -2 0 -383 -291 -846 -647 -464 -355
-869 -666 -901 -691 -32 -24 -60 -42 -62 -40 -2 2 -31 323 -64 713 -34 391
-70 816 -81 945 -31 365 -158 1864 -166 1965 -12 150 -13 149 -74 -22z m-541
-10495 c11 -27 18 -48 16 -48 -9 0 -75 140 -74 157 0 17 11 -3 58 -109z"/>
</g>
</svg>
