<?xml version="1.0" encoding="UTF-8"?>
<svg width="333" height="500" fill-rule="evenodd" image-rendering="optimizeQuality" shape-rendering="geometricPrecision" text-rendering="geometricPrecision" viewBox="0 0 333 470.957" xmlns="http://www.w3.org/2000/svg">
 <path d="m146.15 82.254c-37.999 35.623-77.5 72.908-89.993 122.72-12.678 50.55 7.4952 107.15 73.195 111.04 63.702 3.7723 98.477-44.602 87.602-97.388-7.5789-36.788-51.634-96.981-70.804-136.37z" fill="#0093dd"/>
 <path d="m146.07 82.816c-37.763 35.446-77.03 72.582-89.461 122.19-12.615 50.344 7.4202 106.7 72.747 110.57 63.338 3.7535 97.903-44.417 87.082-96.987-7.5413-36.651-51.34-96.582-70.368-135.77z" fill="#0094de"/>
 <path d="m145.99 83.378c-37.528 35.268-76.56 72.256-88.929 121.66-12.552 50.139 7.345 106.25 72.298 110.1 62.974 3.7347 97.328-44.232 86.562-96.585-7.5034-36.514-51.045-96.182-69.931-135.18z" fill="#0097df"/>
 <path d="m145.9 83.941c-37.292 35.091-76.09 71.931-88.397 121.14-12.489 49.933 7.27 105.8 71.85 109.63 62.611 3.716 96.754-44.048 86.042-96.184-7.4659-36.377-50.75-95.783-69.494-134.58z" fill="#0098e0"/>
 <path d="m145.82 84.504c-37.057 34.914-75.62 71.605-87.865 120.61-12.426 49.728 7.1949 105.35 71.401 109.16 62.247 3.6972 96.179-43.863 85.521-95.782-7.4281-36.24-50.456-95.383-69.058-133.99z" fill="#009ae0"/>
 <path d="m145.74 85.067c-36.821 34.737-75.15 71.28-87.333 120.08-12.363 49.522 7.1197 104.9 70.952 108.69 61.884 3.6785 95.605-43.678 85.001-95.381-7.3905-36.102-50.161-94.984-68.621-133.39z" fill="#009ce1"/>
 <path d="m145.65 85.63c-36.585 34.56-74.68 70.954-86.8 119.55-12.3 49.316 7.0447 104.45 70.504 108.22 61.52 3.6597 95.031-43.493 84.481-94.979-7.3526-35.965-49.866-94.584-68.184-132.8z" fill="#009de1"/>
 <path d="m145.57 86.194c-36.35 34.382-74.211 70.629-86.268 119.03-12.237 49.11 6.9697 104 70.055 107.75 61.157 3.641 94.457-43.309 83.961-94.578-7.3151-35.828-49.572-94.185-67.748-132.2z" fill="#009ee2"/>
 <path d="m145.49 86.758c-36.114 34.205-73.74 70.303-85.736 118.5-12.174 48.905 6.8945 103.55 69.607 107.28 60.793 3.6221 93.882-43.124 83.44-94.176-7.2773-35.691-49.277-93.785-67.311-131.61z" fill="#00a0e2"/>
 <path d="m145.4 87.322c-35.878 34.028-73.271 69.977-85.204 117.97-12.111 48.699 6.8195 103.1 69.158 106.81 60.43 3.6034 93.308-42.939 82.92-93.774-7.2396-35.554-48.982-93.386-66.874-131.01z" fill="#00a0e3"/>
 <path d="m145.32 87.887c-35.643 33.851-72.801 69.652-84.672 117.44-12.048 48.494 6.7444 102.65 68.71 106.34 60.066 3.5845 92.734-42.754 82.4-93.373-7.2018-35.416-48.687-92.986-66.438-130.42z" fill="#00a1e3"/>
 <path d="m145.24 88.452c-35.407 33.673-72.331 69.326-84.14 116.92-11.985 48.288 6.6692 102.2 68.261 105.88 59.702 3.566 92.159-42.57 81.88-92.971-7.1643-35.279-48.393-92.587-66.001-129.82z" fill="#00a3e4"/>
 <path d="m145.15 89.017c-35.171 33.496-71.861 69.001-83.608 116.39-11.922 48.082 6.5942 101.75 67.813 105.41 59.339 3.5471 91.585-42.385 81.36-92.57-7.1265-35.142-48.098-92.187-65.564-129.22z" fill="#00a3e4"/>
 <path d="m145.07 89.583c-34.936 33.319-71.391 68.675-83.076 115.86-11.858 47.876 6.5192 101.3 67.364 104.94 58.975 3.5284 91.01-42.2 80.839-92.168-7.0888-35.005-47.803-91.788-65.128-128.63z" fill="#00a4e5"/>
 <path d="m144.98 90.148c-34.7 33.142-70.921 68.35-82.544 115.33-11.795 47.671 6.444 100.85 66.916 104.47 58.612 3.5095 90.436-42.015 80.319-91.767-7.051-34.868-47.509-91.388-64.691-128.03z" fill="#00a5e5"/>
 <path d="m144.9 90.715c-34.464 32.964-70.451 68.024-82.011 114.8-11.732 47.465 6.369 100.4 66.467 104 58.248 3.4908 89.862-41.831 79.799-91.365-7.0135-34.73-47.214-90.989-64.254-127.44z" fill="#00a5e5"/>
 <path d="m144.81 91.281c-34.229 32.787-69.981 67.699-81.479 114.28-11.669 47.26 6.2939 99.947 66.018 103.53 57.885 3.4719 89.287-41.646 79.278-90.964-6.9756-34.593-46.919-90.589-63.818-126.84z" fill="#00a6e6"/>
 <path d="m144.73 91.848c-33.993 32.61-69.511 67.373-80.947 113.75-11.606 47.054 6.2187 99.497 65.57 103.06 57.521 3.4532 88.713-41.461 78.758-90.562-6.938-34.456-46.625-90.19-63.381-126.25z" fill="#00a8e6"/>
 <path d="m144.64 92.416c-33.757 32.433-69.041 67.047-80.415 113.22-11.543 46.848 6.1437 99.047 65.121 102.59 57.158 3.4345 88.139-41.276 78.238-90.161-6.9002-34.319-46.33-89.79-62.944-125.65z" fill="#00a8e6"/>
 <path d="m144.56 92.984c-33.522 32.256-68.571 66.722-79.883 112.7-11.48 46.642 6.0687 98.597 64.673 102.12 56.794 3.4158 87.565-41.092 77.718-89.759-6.8626-34.182-46.035-89.391-62.508-125.06z" fill="#00a9e7"/>
 <path d="m144.47 93.552c-33.286 32.078-68.101 66.396-79.351 112.17-11.417 46.437 5.9935 98.147 64.224 101.65 56.431 3.3969 86.99-40.907 77.198-89.358-6.8248-34.044-45.741-88.991-62.071-124.46z" fill="#00a9e7"/>
 <path d="m144.39 94.12c-33.05 31.901-67.631 66.071-78.819 111.64-11.354 46.231 5.9185 97.697 63.776 101.18 56.067 3.3782 86.416-40.722 76.677-88.956-6.7872-33.907-45.446-88.592-61.634-123.86z" fill="#00aae7"/>
 <path d="m144.3 94.689c-32.815 31.724-67.161 65.745-78.286 111.11-11.291 46.026 5.8434 97.247 63.327 100.71 55.704 3.3593 85.841-40.538 76.157-88.555-6.7494-33.77-45.151-88.192-61.198-123.27z" fill="#00abe7"/>
 <path d="m144.22 95.258c-32.579 31.546-66.691 65.42-77.754 110.58-11.228 45.82 5.7682 96.797 62.878 100.24 55.34 3.3406 85.267-40.353 75.637-88.153-6.7117-33.633-44.856-87.793-60.761-122.67z" fill="#00ace8"/>
 <path d="m144.13 95.828c-32.343 31.369-66.221 65.094-77.222 110.06-11.164 45.614 5.6932 96.347 62.43 99.773 54.977 3.3218 84.693-40.168 75.117-87.752-6.674-33.496-44.562-87.393-60.324-122.08z" fill="#00ace8"/>
 <path d="m144.04 96.398c-32.108 31.192-65.751 64.768-76.69 109.53-11.101 45.408 5.6182 95.896 61.981 99.303 54.613 3.3032 84.118-39.983 74.596-87.35-6.6364-33.358-44.267-86.994-59.888-121.48z" fill="#00ace8"/>
 <path d="m143.96 96.968c-31.872 31.015-65.281 64.443-76.158 109-11.038 45.203 5.543 95.446 61.533 98.834 54.25 3.2843 83.544-39.799 74.076-86.948-6.5985-33.221-43.972-86.594-59.451-120.89z" fill="#06ade8"/>
 <path d="m143.87 97.539c-31.636 30.838-64.811 64.117-75.626 108.48-10.975 44.997 5.468 94.996 61.084 98.364 53.886 3.2656 82.97-39.614 73.556-86.547-6.5609-33.084-43.678-86.195-59.014-120.29z" fill="#11aee8"/>
 <path d="m143.78 98.11c-31.401 30.66-64.341 63.792-75.094 107.95-10.912 44.792 5.393 94.546 60.636 97.895 53.523 3.2468 82.396-39.429 73.036-86.146-6.5232-32.947-43.383-85.795-58.578-119.7z" fill="#1cafe9"/>
 <path d="m143.69 98.682c-31.165 30.483-63.871 63.466-74.562 107.42-10.849 44.586 5.3177 94.096 60.187 97.426 53.159 3.228 81.821-39.244 72.516-85.744-6.4856-32.81-43.088-85.396-58.141-119.1z" fill="#1cafe9"/>
 <path d="m143.61 99.253c-30.929 30.306-63.401 63.141-74.029 106.89-10.786 44.38 5.2427 93.646 59.739 96.956 52.796 3.2092 81.247-39.06 71.995-85.342-6.4477-32.672-42.794-84.996-57.704-118.51z" fill="#21b0e9"/>
 <path d="m143.52 99.826c-30.694 30.129-62.931 62.815-73.497 106.36-10.723 44.174 5.1677 93.196 59.29 96.487 52.432 3.1905 80.672-38.875 71.475-84.941-6.4101-32.535-42.499-84.597-57.268-117.91z" fill="#28b1e9"/>
 <path d="m143.43 100.4c-30.458 29.952-62.461 62.49-72.965 105.84-10.66 43.969 5.0925 92.746 58.842 96.017 52.068 3.1718 80.098-38.69 70.955-84.539-6.3724-32.398-42.204-84.197-56.831-117.32z" fill="#28b1e9"/>
 <path d="m143.34 100.97c-30.223 29.774-61.991 62.164-72.433 105.31-10.597 43.763 5.0175 92.296 58.393 95.548 51.705 3.153 79.524-38.505 70.434-84.138-6.3346-32.261-41.91-83.798-56.394-116.72z" fill="#2cb1e9"/>
 <path d="m143.26 101.54c-29.987 29.597-61.521 61.838-71.901 104.78-10.534 43.558 4.9424 91.846 57.944 95.078 51.342 3.1342 78.95-38.321 69.914-83.736-6.2969-32.124-41.615-83.398-55.958-116.12z" fill="#31b2ea"/>
 <path d="m143.17 102.12c-29.751 29.42-61.051 61.513-71.369 104.25-10.471 43.352 4.8672 91.396 57.496 94.609 50.978 3.1154 78.375-38.136 69.394-83.335-6.2593-31.987-41.32-82.999-55.521-115.53z" fill="#31b2ea"/>
 <path d="m143.08 102.69c-29.516 29.243-60.581 61.187-70.837 103.73-10.408 43.146 4.7922 90.946 57.047 94.139 50.614 3.0966 77.801-37.951 68.874-82.933-6.2216-31.849-41.026-82.599-55.084-114.93z" fill="#36b3ea"/>
 <path d="m142.99 103.27c-29.28 29.066-60.111 60.862-70.304 103.2-10.345 42.94 4.717 90.495 56.599 93.67 50.251 3.0779 77.226-37.767 68.354-82.532-6.1838-31.712-40.731-82.2-54.648-114.34z" fill="#36b3ea"/>
 <path d="m142.9 103.84c-29.044 28.888-59.641 60.536-69.772 102.67-10.282 42.735 4.642 90.045 56.15 93.2 49.887 3.059 76.652-37.582 67.833-82.13-6.1461-31.575-40.436-81.8-54.211-113.74z" fill="#3ab4ea"/>
 <path d="m142.81 104.42c-28.809 28.711-59.171 60.211-69.24 102.14-10.218 42.529 4.567 89.595 55.702 92.731 49.524 3.0404 76.078-37.397 67.313-81.728-6.1085-31.438-40.142-81.401-53.775-113.15z" fill="#3ab4ea"/>
 <path d="m142.72 105c-28.573 28.534-58.702 59.885-68.708 101.62-10.155 42.324 4.4918 89.145 55.253 92.262 49.16 3.0216 75.504-37.212 66.793-81.327-6.0706-31.3-39.847-81.001-53.338-112.55z" fill="#3eb5eb"/>
 <path d="m142.63 105.57c-28.337 28.356-58.232 59.56-68.176 101.09-10.092 42.118 4.4167 88.695 54.804 91.792 48.797 3.0029 74.929-37.028 66.273-80.926-6.033-31.163-39.552-80.602-52.901-111.96z" fill="#41b6eb"/>
 <path d="m142.54 106.15c-28.102 28.179-57.762 59.234-67.644 100.56-10.029 41.912 4.3417 88.245 54.356 91.323 48.433 2.984 74.355-36.843 65.752-80.524-5.9953-31.026-39.258-80.202-52.465-111.36z" fill="#41b6eb"/>
 <path d="m142.45 106.73c-27.866 28.002-57.292 58.908-67.112 100.03-9.9662 41.706 4.2665 87.795 53.908 90.853 48.07 2.9653 73.78-36.658 65.232-80.122-5.9577-30.889-38.963-79.803-52.028-110.76z" fill="#41b6eb"/>
 <path d="m142.36 107.3c-27.63 27.825-56.822 58.583-66.58 99.506-9.9031 41.501 4.1915 87.345 53.459 90.384 47.706 2.9464 73.206-36.474 64.712-79.721-5.9198-30.752-38.668-79.403-51.591-110.17z" fill="#45b7ec"/>
 <path d="m142.27 107.88c-27.395 27.648-56.352 58.257-66.048 98.979-9.84 41.295 4.1165 86.895 53.01 89.914 47.343 2.9277 72.632-36.289 64.192-79.32-5.8822-30.614-38.374-79.004-51.154-109.57z" fill="#45b7ec"/>
 <path d="m142.18 108.46c-27.159 27.47-55.882 57.932-65.516 98.451-9.7769 41.09 4.0414 86.445 52.562 89.445 46.979 2.909 72.058-36.104 63.672-78.918-5.8445-30.477-38.079-78.604-50.718-108.98z" fill="#48b7ec"/>
 <path d="m142.09 109.04c-26.923 27.293-55.412 57.606-64.983 97.924-9.7138 40.884 3.9664 85.995 52.113 88.975 46.616 2.8903 71.483-35.919 63.151-78.516-5.8067-30.34-37.784-78.205-50.281-108.38z" fill="#48b7ec"/>
 <path d="m142 109.62c-26.688 27.116-54.942 57.281-64.451 97.396-9.6508 40.678 3.8912 85.544 51.665 88.506 46.252 2.8714 70.909-35.734 62.631-78.115-5.769-30.203-37.49-77.805-49.844-107.79z" fill="#4cb8ec"/>
 <path d="m141.91 110.2c-26.452 26.939-54.472 56.955-63.919 96.869-9.5877 40.472 3.816 85.094 51.216 88.037 45.888 2.8527 70.334-35.55 62.111-77.713-5.7314-30.066-37.195-77.406-49.408-107.19z" fill="#4cb8ec"/>
 <path d="m141.82 110.78c-26.216 26.762-54.002 56.63-63.387 96.341-9.5246 40.267 3.741 84.644 50.768 87.567 45.525 2.8338 69.76-35.365 61.591-77.312-5.6937-29.928-36.9-77.006-48.971-106.6z" fill="#4fb9ec"/>
 <path d="m141.72 111.36c-25.981 26.584-53.532 56.304-62.855 95.814-9.4615 40.061 3.666 84.194 50.319 87.098 45.161 2.8151 69.186-35.18 61.07-76.91-5.6559-29.791-36.605-76.607-48.535-106z" fill="#4fb9ec"/>
 <path d="m141.63 111.95c-25.745 26.407-53.062 55.978-62.323 95.286-9.3984 39.856 3.5908 83.744 49.871 86.628 44.798 2.7964 68.612-34.995 60.55-76.509-5.6182-29.654-36.311-76.207-48.098-105.41z" fill="#53baed"/>
 <path d="m141.54 112.53c-25.509 26.23-52.592 55.653-61.791 94.758-9.3353 39.65 3.5158 83.294 49.422 86.159 44.434 2.7777 68.037-34.811 60.03-76.107-5.5806-29.517-36.016-75.808-47.661-104.81z" fill="#53baed"/>
 <path d="m141.44 113.11c-25.274 26.052-52.122 55.327-61.258 94.231-9.2723 39.444 3.4407 82.844 48.973 85.689 44.071 2.7588 67.463-34.626 59.51-75.706-5.5427-29.38-35.721-75.408-47.225-104.22z" fill="#53baed"/>
 <path d="m141.35 113.7c-25.038 25.875-51.652 55.002-60.726 93.703-9.2092 39.238 3.3655 82.394 48.525 85.22 43.707 2.7401 66.889-34.441 58.99-75.304-5.5051-29.242-35.427-75.009-46.788-103.62z" fill="#56bbed"/>
 <path d="m141.26 114.28c-24.802 25.698-51.182 54.676-60.194 93.176-9.1461 39.033 3.2905 81.944 48.076 84.75 43.344 2.7212 66.314-34.256 58.469-74.903-5.4674-29.105-35.132-74.609-46.351-103.02z" fill="#56bbed"/>
 <path d="m141.16 114.86c-24.567 25.521-50.712 54.351-59.662 92.648-9.083 38.827 3.2155 81.494 47.628 84.281 42.98 2.7025 65.74-34.072 57.949-74.501-5.4298-28.968-34.838-74.21-45.915-102.43z" fill="#5abcee"/>
 <path d="m141.07 115.45c-24.331 25.344-50.242 54.025-59.13 92.121-9.0199 38.622 3.1404 81.044 47.179 83.812 42.617 2.6837 65.165-33.887 57.429-74.1-5.3919-28.831-34.543-73.81-45.478-101.83z" fill="#5abcee"/>
 <path d="m140.98 116.04c-24.095 25.166-49.772 53.699-58.598 91.593-8.9569 38.416 3.0653 80.594 46.731 83.342 42.253 2.6651 64.591-33.702 56.909-73.698-5.3543-28.694-34.248-73.411-45.041-101.24z" fill="#5abcee"/>
 <path d="m140.88 116.62c-23.86 24.989-49.302 53.374-58.066 91.066-8.894 38.21 2.9902 80.143 46.282 82.873 41.89 2.6462 64.017-33.518 56.388-73.296-5.3166-28.556-33.953-73.011-44.605-100.64z" fill="#5dbdee"/>
 <path d="m140.79 117.21c-23.624 24.812-48.832 53.048-57.534 90.538-8.8308 38.004 2.915 79.693 45.834 82.403 41.526 2.6275 63.442-33.333 55.868-72.895-5.2788-28.419-33.658-72.612-44.168-100.05z" fill="#5dbdee"/>
 <path d="m140.69 117.8c-23.389 24.635-48.362 52.723-57.002 90.01-8.7677 37.799 2.84 79.243 45.385 81.934 41.163 2.6087 62.868-33.148 55.348-72.494-5.2411-28.282-33.364-72.212-43.731-99.451z" fill="#60beee"/>
 <path d="m140.6 118.38c-23.153 24.457-47.892 52.397-56.469 89.483-8.7046 37.593 2.765 78.793 44.936 81.464 40.799 2.59 62.294-32.963 54.828-72.092-5.2035-28.145-33.069-71.813-43.295-98.855z" fill="#60beee"/>
 <path d="m140.5 118.97c-22.917 24.28-47.422 52.072-55.937 88.955-8.6415 37.388 2.6898 78.343 44.488 80.995 40.436 2.5711 61.72-32.779 54.308-71.69-5.1658-28.008-32.775-71.413-42.858-98.26z" fill="#60beee"/>
 <path d="m140.41 119.56c-22.682 24.103-46.952 51.746-55.405 88.428-8.5784 37.182 2.6148 77.893 44.039 80.526 40.072 2.5524 61.145-32.594 53.787-71.289-5.128-27.87-32.48-71.014-42.421-97.664z" fill="#63bfef"/>
 <path d="m140.31 120.15c-22.446 23.926-46.482 51.421-54.873 87.9-8.5154 36.976 2.5397 77.443 43.591 80.056 39.709 2.5336 60.571-32.409 53.267-70.887-5.0903-27.733-32.185-70.614-41.985-97.069z" fill="#63bfef"/>
 <path d="m140.21 120.74c-22.21 23.749-46.012 51.095-54.341 87.373-8.4523 36.77 2.4645 76.993 43.142 79.586 39.345 2.5149 59.996-32.224 52.747-70.486-5.0527-27.596-31.891-70.215-41.548-96.474z" fill="#66c0ef"/>
 <path d="m140.12 121.33c-21.974 23.571-45.542 50.769-53.809 86.845-8.3892 36.565 2.3895 76.543 42.694 79.117 38.982 2.4961 59.422-32.04 52.226-70.084-5.0148-27.459-31.596-69.815-41.111-95.878z" fill="#66c0ef"/>
 <path d="m140.02 121.93c-21.739 23.394-45.072 50.444-53.276 86.318-8.3261 36.359 2.3145 76.093 42.245 78.648 38.618 2.4774 58.848-31.855 51.706-69.683-4.9772-27.322-31.301-69.416-40.675-95.283z" fill="#66c0ef"/>
 <path d="m139.92 122.52c-21.503 23.217-44.602 50.118-52.744 85.79-8.263 36.154 2.2394 75.642 41.797 78.178 38.255 2.4585 58.274-31.67 51.186-69.281-4.9395-27.184-31.007-69.016-40.238-94.687z" fill="#66c0ef"/>
 <path d="m139.82 123.11c-21.268 23.04-44.132 49.793-52.212 85.263-8.1999 35.948 2.1643 75.192 41.348 77.709 37.891 2.4398 57.699-31.486 50.666-68.88-4.9019-27.047-30.712-68.617-39.802-94.092z" fill="#6ac1ef"/>
 <path d="m139.73 123.71c-21.032 22.862-43.662 49.467-51.68 84.735-8.1368 35.742 2.0893 74.742 40.9 77.239 37.528 2.4209 57.125-31.301 50.146-68.478-4.864-26.91-30.417-68.217-39.365-93.496z" fill="#6ac1ef"/>
 <path d="m139.63 124.3c-20.796 22.685-43.192 49.142-51.148 84.208-8.0738 35.536 2.014 74.292 40.451 76.77 37.164 2.4024 56.55-31.116 49.625-68.077-4.8264-26.773-30.122-67.818-38.928-92.901z" fill="#6ac1ef"/>
 <path d="m139.53 124.9c-20.561 22.508-42.722 48.816-50.616 83.68-8.0107 35.331 1.939 73.842 40.002 76.3 36.8 2.3835 55.976-30.931 49.105-67.675-4.7887-26.636-29.828-67.418-38.492-92.305z" fill="#6ac1ef"/>
 <path d="m139.43 125.49c-20.325 22.331-42.252 48.49-50.084 83.152-7.9476 35.125 1.864 73.392 39.554 75.831 36.437 2.3648 55.402-30.746 48.585-67.274-4.751-26.498-29.533-67.019-38.055-91.71z" fill="#6cc2ef"/>
 <path d="m139.33 126.09c-20.089 22.154-41.782 48.165-49.552 82.625-7.8846 34.92 1.7888 72.942 39.105 75.362 36.073 2.3459 54.828-30.562 48.065-66.872-4.7132-26.361-29.238-66.619-37.618-91.114z" fill="#6cc2ef"/>
 <path d="m139.23 126.69c-19.854 21.976-41.313 47.839-49.02 82.097-7.8215 34.714 1.7138 72.492 38.657 74.892 35.71 2.3272 54.253-30.377 47.544-66.471-4.6756-26.224-28.944-66.22-37.182-90.519z" fill="#70c3f0"/>
 <path d="m139.13 127.28c-19.618 21.799-40.842 47.514-48.488 81.57-7.7584 34.508 1.6388 72.042 38.208 74.423 35.346 2.3083 53.679-30.192 47.024-66.069-4.6377-26.087-28.649-65.82-36.745-89.923z" fill="#70c3f0"/>
 <path d="m139.03 127.88c-19.382 21.622-40.373 47.188-47.955 81.042-7.6955 34.302 1.5635 71.592 37.76 73.953 34.983 2.2896 53.104-30.008 46.504-65.668-4.6-25.95-28.354-65.42-36.308-89.328z" fill="#70c3f0"/>
 <path d="m138.93 128.48c-19.147 21.445-39.903 46.863-47.423 80.515-7.6324 34.097 1.4885 71.142 37.311 73.484 34.619 2.2709 52.53-29.823 45.984-65.266-4.5623-25.812-28.06-65.021-35.872-88.732z" fill="#70c3f0"/>
 <path d="m138.83 129.08c-18.911 21.267-39.433 46.537-46.891 79.987-7.5692 33.891 1.4135 70.692 36.862 73.014 34.256 2.2522 51.956-29.638 45.464-64.864-4.5247-25.675-27.765-64.622-35.435-88.137z" fill="#72c4f0"/>
 <path d="m138.72 129.68c-18.675 21.09-38.963 46.212-46.359 79.46-7.5061 33.686 1.3383 70.241 36.414 72.545 33.892 2.2333 51.382-29.453 44.943-64.463-4.4868-25.538-27.47-64.222-34.998-87.542z" fill="#72c4f0"/>
 <path d="m138.62 130.29c-18.44 20.913-38.493 45.886-45.827 78.932-7.443 33.48 1.2633 69.791 35.965 72.076 33.529 2.2146 50.807-29.269 44.423-64.061-4.4492-25.401-27.176-63.823-34.562-86.946z" fill="#72c4f0"/>
 <path d="m138.52 130.89c-18.204 20.736-38.023 45.56-45.295 78.404-7.3799 33.274 1.1883 69.341 35.517 71.606 33.165 2.1957 50.233-29.084 43.903-63.66-4.4115-25.264-26.881-63.423-34.125-86.35z" fill="#75c5f0"/>
 <path d="m138.42 131.49c-17.968 20.558-37.553 45.235-44.762 77.877-7.317 33.068 1.113 68.891 35.068 71.137 32.802 2.177 49.658-28.899 43.382-63.258-4.3737-25.126-26.586-63.024-33.688-85.755z" fill="#75c5f0"/>
 <path d="m138.32 132.1c-17.733 20.381-37.083 44.909-44.23 77.349-7.2538 32.863 1.038 68.441 34.62 70.667 32.438 2.1582 49.084-28.715 42.862-62.857-4.3361-24.989-26.292-62.624-33.252-85.16z" fill="#75c5f0"/>
 <path d="m138.21 132.7c-17.497 20.204-36.613 44.584-43.698 76.822-7.1907 32.657 0.963 67.991 34.171 70.198 32.075 2.1396 48.51-28.53 42.342-62.455-4.2986-24.852-25.997-62.224-32.815-84.564z" fill="#75c5f0"/>
 <path d="m138.11 133.31c-17.262 20.027-36.143 44.258-43.166 76.294-7.1276 32.452 0.88784 67.541 33.723 69.728 31.711 2.1207 47.936-28.345 41.822-62.054-4.2608-24.715-25.702-61.825-32.378-83.969z" fill="#79c6f1"/>
 <path d="m138 133.92c-17.026 19.85-35.673 43.933-42.634 75.767-7.0645 32.246 0.81284 67.091 33.274 69.259 31.348 2.102 47.361-28.16 41.302-61.652-4.2231-24.578-25.408-61.426-31.942-83.373z" fill="#79c6f1"/>
 <path d="m137.9 134.52c-16.79 19.672-35.203 43.607-42.102 75.239-7.0014 32.04 0.73783 66.641 32.826 68.789 30.984 2.0832 46.787-27.976 40.782-61.251-4.1853-24.44-25.113-61.026-31.505-82.778z" fill="#79c6f1"/>
 <path d="m137.79 135.13c-16.554 19.495-34.733 43.282-41.57 74.712-6.9383 31.834 0.66267 66.191 32.377 68.32 30.621 2.0644 46.213-27.791 40.261-60.849-4.1478-24.303-24.818-60.626-31.068-82.182z" fill="#7bc7f1"/>
 <path d="m137.69 135.74c-16.319 19.318-34.263 42.956-41.038 74.184-6.8753 31.629 0.58751 65.741 31.928 67.85 30.257 2.0456 45.638-27.606 39.741-60.448-4.1098-24.166-24.524-60.227-30.632-81.587z" fill="#7bc7f1"/>
 <path d="m137.58 136.35c-16.083 19.14-33.793 42.63-40.506 73.656-6.8124 31.423 0.5125 65.291 31.48 67.381 29.894 2.0269 45.064-27.421 39.221-60.046-4.0723-24.029-24.229-59.828-30.195-80.991z" fill="#7bc7f1"/>
 <path d="m137.47 136.96c-15.848 18.963-33.323 42.305-39.974 73.129-6.7493 31.218 0.43734 64.841 31.031 66.912 29.53 2.0082 44.489-27.236 38.701-59.645-4.0345-23.892-23.934-59.428-29.758-80.396z" fill="#7bc7f1"/>
 <path d="m137.36 137.58c-15.612 18.786-32.853 41.979-39.441 72.602-6.6862 31.012 0.36234 64.39 30.583 66.442 29.166 1.9894 43.915-27.052 38.18-59.243-3.997-23.754-23.64-59.028-29.322-79.8z" fill="#7fc8f2"/>
 <path d="m137.26 138.19c-15.376 18.609-32.383 41.654-38.909 72.074-6.623 30.806 0.28733 63.94 30.134 65.973 28.803 1.9706 43.341-26.867 37.66-58.842-3.959-23.617-23.345-58.629-28.885-79.205z" fill="#7fc8f2"/>
 <path d="m137.15 138.81c-15.141 18.432-31.913 41.328-38.377 71.546-6.5599 30.6 0.21217 63.49 29.686 65.503 28.439 1.9519 42.767-26.682 37.14-58.44-3.9215-23.48-23.05-58.23-28.448-78.61z" fill="#7fc8f2"/>
 <path d="m137.04 139.42c-14.905 18.254-31.443 41.003-37.845 71.019-6.497 30.395 0.13701 63.04 29.237 65.034 28.076 1.933 42.192-26.498 36.62-58.039-3.8837-23.343-22.756-57.83-28.012-78.014z" fill="#7fc8f2"/>
 <path d="m136.93 140.04c-14.669 18.077-30.973 40.677-37.313 70.491-6.4339 30.189 0.062 62.59 28.788 64.564 27.712 1.9143 41.618-26.313 36.099-57.637-3.846-23.206-22.461-57.43-27.575-77.418z" fill="#81c9f2"/>
 <path d="m136.82 140.66c-14.434 17.9-30.503 40.352-36.781 69.964-6.3708 29.984-0.01316 62.14 28.34 64.095 27.349 1.8954 41.044-26.128 35.579-57.236-3.8082-23.068-22.166-57.031-27.138-76.823z" fill="#81c9f2"/>
 <path d="m136.71 141.28c-14.198 17.723-30.033 40.026-36.249 69.436-6.3076 29.778-0.08817 61.69 27.891 63.625 26.985 1.8768 40.469-25.943 35.059-56.834-3.7707-22.931-21.872-56.632-26.702-76.228z" fill="#81c9f2"/>
 <path d="m136.6 141.9c-13.962 17.546-29.563 39.7-35.716 68.909-6.2445 29.572-0.16333 61.24 27.443 63.156 26.622 1.858 39.895-25.759 34.539-56.432-3.7329-22.794-21.577-56.232-26.265-75.632z" fill="#81c9f2"/>
 <path d="m136.49 142.52c-13.727 17.368-29.093 39.375-35.184 68.381-6.1814 29.366-0.23833 60.79 26.994 62.687 26.258 1.8393 39.321-25.574 34.018-56.031-3.6952-22.657-21.282-55.832-25.828-75.037z" fill="#81c9f2"/>
 <path d="m136.38 143.14c-13.491 17.191-28.623 39.049-34.652 67.854-6.1185 29.161-0.3135 60.34 26.546 62.217 25.895 1.8204 38.746-25.389 33.498-55.629-3.6574-22.52-20.988-55.433-25.392-74.441z" fill="#84caf2"/>
 <path d="m136.26 143.76c-13.255 17.014-28.153 38.724-34.12 67.326-6.0554 28.955-0.38866 59.89 26.097 61.748 25.531 1.8017 38.172-25.205 32.978-55.228-3.6199-22.382-20.693-55.034-24.955-73.846z" fill="#84caf2"/>
 <path d="m136.15 144.39c-13.02 16.837-27.683 38.398-33.588 66.798-5.9923 28.75-0.46366 59.44 25.649 61.278 25.168 1.7828 37.598-25.02 32.458-54.826-3.582-22.245-20.398-54.634-24.518-73.25z" fill="#84caf2"/>
 <path d="m136.04 145.01c-12.784 16.66-27.213 38.073-33.056 66.271-5.9291 28.544-0.53867 58.989 25.2 60.809 24.804 1.7641 37.023-24.835 31.938-54.425-3.5444-22.108-20.104-54.235-24.082-72.655z" fill="#84caf2"/>
 <path d="m135.92 145.64c-12.548 16.482-26.744 37.747-32.524 65.743-5.866 28.338-0.61383 58.539 24.752 60.339 24.44 1.7454 36.449-24.65 31.417-54.023-3.5066-21.971-19.809-53.835-23.645-72.06z" fill="#84caf2"/>
 <path d="m135.81 146.27c-12.313 16.305-26.273 37.421-31.992 65.216-5.8031 28.132-0.68883 58.089 24.303 59.87 24.077 1.7267 35.875-24.466 30.897-53.622-3.4691-21.834-19.514-53.436-23.209-71.464z" fill="#87cbf2"/>
 <path d="m135.69 146.9c-12.077 16.128-25.803 37.096-31.459 64.688-5.7401 27.927-0.764 57.639 23.854 59.4 23.713 1.7078 35.3-24.281 30.377-53.22-3.4312-21.696-19.219-53.036-22.772-70.869z" fill="#87cbf2"/>
 <path d="m135.58 147.53c-11.842 15.95-25.334 36.77-30.927 64.161-5.677 27.721-0.83916 57.189 23.406 58.931 23.35 1.6891 34.726-24.096 29.857-52.819-3.3936-21.559-18.925-52.636-22.335-70.273z" fill="#87cbf2"/>
 <path d="m135.46 148.16c-11.606 15.773-24.864 36.445-30.395 63.633-5.6139 27.516-0.91416 56.739 22.957 58.462 22.986 1.6702 34.152-23.912 29.336-52.417-3.3558-21.422-18.63-52.237-21.899-69.678z" fill="#8acdf3"/>
 <path d="m135.34 148.79c-11.37 15.596-24.394 36.119-29.863 63.106-5.5508 27.31-0.98917 56.289 22.509 57.992 22.623 1.6515 33.577-23.727 28.816-52.016-3.3181-21.285-18.335-51.838-21.462-69.082z" fill="#8acdf3"/>
 <path d="m135.22 149.43c-11.134 15.419-23.924 35.794-29.331 62.578-5.4877 27.104-1.0643 55.839 22.06 57.523 22.26 1.6326 33.003-23.542 28.296-51.614-3.2804-21.148-18.041-51.438-21.025-68.487z" fill="#8acdf3"/>
 <path d="m135.1 150.06c-10.899 15.242-23.454 35.468-28.799 62.05-5.4246 26.898-1.1393 55.389 21.612 57.053 21.896 1.6141 32.429-23.357 27.776-51.212-3.2428-21.011-17.746-51.039-20.589-67.891z" fill="#8acdf3"/>
 <path d="m134.99 150.7c-10.663 15.064-22.984 35.143-28.267 61.523-5.3615 26.693-1.2143 54.939 21.163 56.584 21.532 1.5952 31.854-23.172 27.256-50.811-3.205-20.873-17.451-50.639-20.152-67.296z" fill="#8acdf3"/>
 <path d="m134.86 151.34c-10.428 14.887-22.514 34.817-27.734 60.996-5.2985 26.487-1.2897 54.488 20.714 56.114 21.169 1.5765 31.28-22.988 26.735-50.409-3.1673-20.736-17.157-50.24-19.715-66.7z" fill="#8acdf3"/>
 <path d="m134.74 151.98c-10.192 14.71-22.044 34.492-27.202 60.468-5.2354 26.282-1.3647 54.038 20.266 55.645 20.805 1.5576 30.706-22.803 26.215-50.008-3.1296-20.599-16.862-49.84-19.279-66.105z" fill="#8dcdf3"/>
 <path d="m134.62 152.63c-9.9562 14.533-21.574 34.166-26.67 59.94-5.1723 26.076-1.4397 53.588 19.818 55.176 20.442 1.5389 30.131-22.618 25.695-49.606-3.092-20.462-16.567-49.44-18.842-65.509z" fill="#8dcdf3"/>
 <path d="m134.5 153.27c-9.7206 14.356-21.104 33.84-26.138 59.413-5.1092 25.87-1.5148 53.138 19.369 54.706 20.078 1.5201 29.557-22.434 25.175-49.205-3.0541-20.324-16.273-49.041-18.405-64.914z" fill="#8dcdf3"/>
 <path d="m134.38 153.92c-9.485 14.178-20.634 33.515-25.606 58.885-5.0461 25.664-1.5898 52.688 18.92 54.237 19.715 1.5014 28.983-22.249 24.654-48.803-3.0165-20.187-15.978-48.642-17.969-64.318z" fill="#8dcdf3"/>
 <path d="m134.25 154.56c-9.2492 14.001-20.164 33.189-25.074 58.358-4.983 25.459-1.6648 52.238 18.472 53.767 19.351 1.4826 28.408-22.064 24.134-48.402-2.9788-20.05-15.683-48.242-17.532-63.723z" fill="#90cff3"/>
 <path d="m134.13 155.21c-9.0137 13.824-19.694 32.864-24.542 57.83-4.92 25.253-1.7402 51.788 18.023 53.298 18.988 1.4639 27.834-21.879 23.614-48-2.9412-19.913-15.389-47.842-17.095-63.128z" fill="#90cff3"/>
 <path d="m134 155.86c-8.7779 13.646-19.224 32.538-24.01 57.302-4.8569 25.048-1.8152 51.338 17.575 52.828 18.624 1.4451 27.26-21.695 23.094-47.599-2.9033-19.776-15.094-47.443-16.659-62.532z" fill="#90cff3"/>
 <path d="m133.88 156.51c-8.5424 13.469-18.754 32.212-23.478 56.775-4.7938 24.842-1.8902 50.888 17.126 52.359 18.261 1.4264 26.685-21.51 22.574-47.197-2.8657-19.638-14.799-47.044-16.222-61.937z" fill="#90cff3"/>
 <path d="m133.75 157.17c-8.3066 13.292-18.284 31.887-22.945 56.247-4.7308 24.636-1.9653 50.438 16.678 51.89 17.897 1.4075 26.111-21.325 22.053-46.796-2.828-19.501-14.504-46.644-15.786-61.341z" fill="#90cff3"/>
 <path d="m133.62 157.82c-8.071 13.115-17.814 31.561-22.413 55.72-4.6677 24.43-2.0403 49.988 16.229 51.42 17.534 1.3888 25.537-21.14 21.533-46.394-2.7902-19.364-14.21-46.244-15.349-60.746z" fill="#90cff3"/>
 <path d="m133.49 158.48c-7.8353 12.938-17.344 31.236-21.881 55.192-4.6046 24.225-2.1153 49.538 15.781 50.951 17.17 1.3699 24.962-20.956 21.013-45.993-2.7525-19.227-13.915-45.845-14.912-60.15z" fill="#93d0f4"/>
 <path d="m133.36 159.14c-7.5997 12.76-16.874 30.91-21.349 54.665-4.5416 24.019-2.1907 49.088 15.332 50.481 16.806 1.3514 24.388-20.771 20.493-45.591-2.7149-19.09-13.62-45.446-14.476-59.555z" fill="#93d0f4"/>
 <path d="m133.23 159.8c-7.3641 12.583-16.404 30.585-20.817 54.137-4.4785 23.814-2.2657 48.637 14.883 50.012 16.443 1.3325 23.814-20.586 19.972-45.19-2.677-18.952-13.326-45.046-14.039-58.959z" fill="#93d0f4"/>
 <path d="m133.1 160.47c-7.1284 12.406-15.934 30.259-20.285 53.61-4.4154 23.608-2.3407 48.187 14.435 49.542 16.08 1.3138 23.239-20.402 19.452-44.788-2.6394-18.815-13.031-44.646-13.602-58.364z" fill="#93d0f4"/>
 <path d="m132.96 161.13c-6.8928 12.229-15.464 29.934-19.753 53.082-4.3523 23.402-2.4158 47.737 13.986 49.073 15.716 1.2949 22.665-20.217 18.932-44.386-2.6017-18.678-12.736-44.247-13.165-57.768z" fill="#97d1f4"/>
 <path d="m132.83 161.8c-6.6572 12.052-14.994 29.608-19.221 52.555-4.2892 23.196-2.4908 47.287 13.538 48.603 15.352 1.2762 22.091-20.032 18.412-43.985-2.5641-18.541-12.442-43.847-12.729-57.173z" fill="#97d1f4"/>
 <path d="m132.69 162.47c-6.4214 11.874-14.524 29.282-18.688 52.027-4.2261 22.991-2.5658 46.837 13.089 48.134 14.989 1.2573 21.516-19.847 17.892-43.584-2.5262-18.404-12.147-43.448-12.292-56.577z" fill="#97d1f4"/>
 <path d="m132.56 163.14c-6.1857 11.697-14.054 28.957-18.156 51.499-4.163 22.785-2.641 46.387 12.641 47.664 14.625 1.2386 20.942-19.662 17.371-43.182-2.4886-18.266-11.852-43.048-11.855-55.982z" fill="#97d1f4"/>
 <path d="m132.42 163.82c-5.9501 11.52-13.584 28.631-17.624 50.972-4.1 22.58-2.7162 45.937 12.192 47.195 14.262 1.2199 20.368-19.478 16.851-42.78-2.4509-18.129-11.558-42.649-11.419-55.386z" fill="#97d1f4"/>
 <path d="m132.28 164.5c-5.7144 11.343-13.114 28.306-17.092 50.444-4.0369 22.374-2.7912 45.487 11.744 46.726 13.898 1.2012 19.793-19.293 16.331-42.379-2.4131-17.992-11.263-42.25-10.982-54.791z" fill="#97d1f4"/>
 <path d="m132.14 165.18c-5.4788 11.166-12.644 27.98-16.56 49.917-3.9738 22.168-2.8663 45.037 11.295 46.256 13.535 1.1823 19.219-19.108 15.81-41.977-2.3754-17.855-10.968-41.85-10.546-54.196z" fill="#9ad3f4"/>
 <path d="m132 165.86c-5.243 10.988-12.174 27.655-16.028 49.389-3.9107 21.962-2.9413 44.586 10.846 45.786 13.171 1.1636 18.645-18.924 15.29-41.576-2.3378-17.718-10.674-41.45-10.109-53.6z" fill="#9ad3f4"/>
 <path d="m131.86 166.54c-5.0075 10.811-11.704 27.329-15.496 48.862-3.8476 21.757-3.0164 44.136 10.398 45.317 12.808 1.1447 18.07-18.739 14.77-41.174-2.3001-17.58-10.379-41.051-9.6722-53.005z" fill="#9ad3f4"/>
 <path d="m131.71 167.23c-4.7717 10.634-11.234 27.004-14.964 48.334-3.7845 21.551-3.0915 43.686 9.9492 44.848 12.444 1.126 17.496-18.554 14.25-40.773-2.2623-17.443-10.084-40.651-9.2355-52.409z" fill="#9ad3f4"/>
 <path d="m131.57 167.92c-4.5362 10.456-10.764 26.678-14.431 47.807-3.7215 21.346-3.1667 43.236 9.5006 44.378 12.081 1.1072 16.922-18.369 13.73-40.371-2.2246-17.306-9.7897-40.252-8.7988-51.814z" fill="#9ad3f4"/>
 <path d="m131.42 168.61c-4.3005 10.279-10.294 26.352-13.899 47.279-3.6586 21.14-3.2417 42.786 9.052 43.909 11.717 1.0886 16.347-18.184 13.21-39.97-2.187-17.169-9.4949-39.852-8.3623-51.218z" fill="#9cd4f5"/>
 <path d="m131.27 169.31c-4.0648 10.102-9.8243 26.027-13.367 46.752-3.5954 20.934-3.3168 42.336 8.6036 43.439 11.354 1.0697 15.773-18 12.689-39.568-2.1491-17.032-9.2002-39.453-7.9256-50.623z" fill="#9cd4f5"/>
 <path d="m131.12 170.01c-3.8292 9.9248-9.3544 25.701-12.835 46.224-3.5323 20.728-3.3918 41.886 8.155 42.97 10.99 1.051 15.199-17.815 12.169-39.167-2.1115-16.894-8.9055-39.053-7.4888-50.027z" fill="#9cd4f5"/>
 <path d="m130.97 170.71c-3.5936 9.7475-8.8844 25.376-12.303 45.696-3.4692 20.523-3.4668 41.436 7.7066 42.5 10.626 1.0321 14.624-17.63 11.649-38.765-2.0738-16.757-8.6109-38.654-7.0523-49.432z" fill="#9cd4f5"/>
 <path d="m130.82 171.41c-3.3579 9.5704-8.4146 25.05-11.771 45.169-3.4061 20.317-3.542 40.986 7.258 42.031 10.263 1.0134 14.05-17.446 11.128-38.364-2.0362-16.62-8.3163-38.254-6.6156-48.836z" fill="#9cd4f5"/>
 <path d="m130.67 172.12c-3.1223 9.3931-7.9446 24.725-11.239 44.641-3.3432 20.112-3.6172 40.536 6.8094 41.562 9.8995 0.99456 13.476-17.261 10.608-37.962-1.9983-16.483-8.0215-37.855-6.1789-48.241z" fill="#9cd4f5"/>
 <path d="m130.51 172.83c-2.8866 9.2158-7.4746 24.399-10.707 44.114-3.28 19.906-3.6922 40.086 6.3608 41.092 9.536 0.97585 12.901-17.076 10.088-37.561-1.9607-16.346-7.7269-37.455-5.7422-47.645z" fill="#9cd4f5"/>
 <path d="m130.35 173.55c-2.651 9.0386-7.0046 24.074-10.174 43.586-3.2169 19.7-3.7673 39.636 5.9122 40.623 9.1726 0.95714 12.327-16.891 9.5679-37.159-1.923-16.208-7.4322-37.056-5.3056-47.05z" fill="#a0d5f5"/>
 <path d="m130.19 174.26c-2.4152 8.8614-6.5346 23.748-9.6422 43.059-3.1538 19.494-3.8423 39.186 5.4637 40.153 8.8088 0.93843 11.753-16.707 9.0474-36.758-1.8853-16.071-7.1375-36.656-4.8689-46.454z" fill="#a0d5f5"/>
 <path d="m130.03 174.99c-2.1797 8.6842-6.0647 23.422-9.1102 42.531-3.0907 19.289-3.9174 38.735 5.0151 39.684 8.4454 0.91956 11.178-16.522 8.5273-36.356-1.8475-15.934-6.8428-36.257-4.4322-45.859z" fill="#a0d5f5"/>
 <path d="m129.87 175.71c-1.9439 8.507-5.5947 23.097-8.5781 42.004-3.0276 19.083-3.9925 38.285 4.5667 39.214 8.0818 0.90084 10.604-16.337 8.0071-35.954-1.8099-15.797-6.5482-35.857-3.9957-45.264z" fill="#a0d5f5"/>
 <path d="m129.71 176.44c-1.7084 8.3298-5.1247 22.771-8.0459 41.476-2.9646 18.878-4.0677 37.835 4.1179 38.745 7.7183 0.88197 10.03-16.153 7.487-35.553-1.7722-15.66-6.2536-35.458-3.559-44.668z" fill="#a3d6f5"/>
 <path d="m129.54 177.18c-1.4726 8.1525-4.6547 22.446-7.5138 40.948-2.9015 18.672-4.1427 37.385 3.6695 38.276 7.3547 0.86326 9.4553-15.968 6.9665-35.152-1.7344-15.522-5.9588-35.058-3.1223-44.073z" fill="#a3d6f5"/>
 <path d="m129.37 177.92c-1.237 7.9754-4.1847 22.12-6.9816 40.421-2.8384 18.466-4.2178 36.935 3.2209 37.806 6.9913 0.84455 8.881-15.783 6.4464-34.75-1.6967-15.385-5.6642-34.659-2.6857-43.477z" fill="#a3d6f5"/>
 <path d="m129.2 178.66c-1.0014 7.7981-3.7148 21.795-6.4496 39.893-2.7753 18.26-4.2928 36.485 2.7725 37.337 6.6276 0.82584 8.3066-15.598 5.9261-34.348-1.6591-15.248-5.3696-34.259-2.249-42.882z" fill="#a3d6f5"/>
 <path d="m129.03 179.41c-0.76558 7.6209-3.2448 21.469-5.9174 39.366-2.7122 18.055-4.3678 36.035 2.3239 36.867 6.2642 0.80697 7.7324-15.414 5.4059-33.947-1.6212-15.111-5.0748-33.86-1.8123-42.286z" fill="#a3d6f5"/>
 <path d="m128.85 180.16c-0.5301 7.4435-2.7748 21.143-5.3854 38.838-2.6491 17.849-4.443 35.585 1.8753 36.398 5.9008 0.78826 7.1581-15.229 4.8857-33.546-1.5836-14.973-4.7801-33.46-1.3756-41.69z" fill="#a3d6f5"/>
 <path d="m128.67 180.92c-0.29431 7.2664-2.3048 20.818-4.8532 38.311-2.5861 17.644-4.518 35.135 1.4268 35.928 5.5372 0.76939 6.5837-15.044 4.3655-33.144-1.5459-14.836-4.4854-33.061-0.93906-41.095z" fill="#a3d6f5"/>
 <path d="m128.49 181.68c-0.05867 7.0891-1.8348 20.492-4.3209 37.783-2.5232 17.438-4.5932 34.685 0.97807 35.459 5.1737 0.75068 6.0094-14.859 3.8454-32.742-1.5083-14.699-4.1907-32.661-0.50251-40.5z" fill="#a3d6f5"/>
 <path d="m128.31 182.45c0.17697 6.912-1.365 20.167-3.7889 37.256-2.4601 17.232-4.6683 34.234 0.52963 34.989 4.8101 0.73181 5.435-14.675 3.3249-32.341-1.4704-14.562-3.8959-32.262-0.06565-39.904z" fill="#a7d8f6"/>
 <path d="m128.12 183.22c0.4126 6.7347-0.89498 19.841-3.2567 36.728-2.397 17.026-4.7434 33.784 0.08103 34.52 4.4467 0.71325 4.8607-14.49 2.8048-31.939-1.4328-14.425-3.6013-31.862 0.3709-39.309z" fill="#a7d8f6"/>
 <path d="m127.94 184c0.64824 6.5574-0.42497 19.516-2.7247 36.2-2.3338 16.821-4.8184 33.334-0.36741 34.05 4.0831 0.69438 4.2863-14.305 2.2845-31.538-1.3951-14.287-3.3067-31.463 0.8076-38.713z" fill="#a7d8f6"/>
 <path d="m127.74 184.78c0.88388 6.3801 0.04503 19.19-2.1926 35.673-2.2707 16.615-4.8935 32.884-0.81601 33.581 3.7196 0.67567 3.712-14.12 1.7643-31.136-1.3574-14.15-3.0119-31.063 1.2443-38.118z" fill="#a7d8f6"/>
 <path d="m127.55 185.58c1.1195 6.203 0.51488 18.865-1.6606 35.146-2.2076 16.409-4.9685 32.434-1.2644 33.112 3.3558 0.6568 3.1376-13.936 1.244-30.735-1.3196-14.013-2.7173-30.664 1.681-37.522z" fill="#a7d8f6"/>
 <path d="m127.35 186.37c1.3552 6.0259 0.98489 18.539-1.1282 34.618-2.1447 16.204-5.0437 31.984-1.7132 32.642 2.9924 0.63809 2.5633-13.751 0.72388-30.333-1.282-13.876-2.4226-30.264 2.1176-36.927z" fill="#a7d8f6"/>
 <path d="m127.15 187.18c1.591 5.8486 1.4549 18.214-0.59607 34.09-2.0816 15.998-5.1188 31.534-2.1618 32.173 2.629 0.61922 1.9891-13.566 0.20376-29.932-1.2443-13.739-2.128-29.865 2.5541-36.332z" fill="#a7d8f6"/>
 <path d="m126.94 187.99c1.8264 5.6713 1.9249 17.888-0.06406 33.563-2.0185 15.792-5.1938 31.084-2.6102 31.703 2.2654 0.60051 1.4146-13.382-0.31667-29.53-1.2066-13.602-1.8332-29.465 2.991-35.736z" fill="#a7d8f6"/>
 <path d="m126.74 188.81c2.0622 5.494 2.3949 17.562 0.4681 33.035-1.9553 15.587-5.269 30.634-3.0588 31.234 1.9019 0.5818 0.84043-13.197-0.83678-29.128-1.1688-13.464-1.5386-29.066 3.4275-35.14z" fill="#a9d9f6"/>
 <path d="m126.52 189.64c2.2977 5.3169 2.8648 17.237 1.0001 32.508-1.8922 15.381-5.344 30.184-3.5073 30.764 1.5383 0.56309 0.26592-13.012-1.357-28.727-1.1312-13.327-1.244-28.666 3.8642-34.545z" fill="#a9d9f6"/>
 <path d="m126.31 190.48c2.5335 5.1396 3.3348 16.911 1.5323 31.98-1.8291 15.175-5.419 29.734-3.9559 30.295 1.1749 0.54422-0.30826-12.827-1.8773-28.326-1.0934-13.19-0.94921-28.267 4.3009-33.95z" fill="#a9d9f6"/>
 <path d="m126.09 191.32c2.7691 4.9625 3.8048 16.586 2.0646 31.453-1.7662 14.97-5.4943 29.284-4.4045 29.826 0.81125 0.52551-0.88277-12.643-2.3976-27.924-1.0558-13.053-0.65458-27.867 4.7375-33.354z" fill="#a9d9f6"/>
 <path d="m125.86 192.17c3.0048 4.785 4.2748 16.26 2.5966 30.925-1.7031 14.764-5.5694 28.833-4.8531 29.356 0.44781 0.50664-1.457-12.458-2.9177-27.522-1.018-12.916-0.35996-27.468 5.1742-32.759z" fill="#a9d9f6"/>
 <path d="m125.63 193.04c3.2404 4.6079 4.7448 15.934 3.1288 30.398-1.64 14.558-5.6444 28.383-5.3017 28.887 0.08436 0.48792-2.0313-12.273-3.4378-27.121-0.98045-12.778-0.06533-27.068 5.6107-32.163z" fill="#addbf7"/>
 <path d="m125.4 193.91c3.476 4.4306 5.2146 15.609 3.6608 29.87-1.577 14.353-5.7195 27.934-5.7501 28.417-0.27924 0.46905-2.6056-12.088-3.9583-26.719-0.94255-12.641 0.22961-26.669 6.0476-31.568z" fill="#addbf7"/>
 <path d="m125.15 194.8c3.7117 4.2535 5.6846 15.283 4.193 29.342-1.5139 14.147-5.7945 27.483-6.1987 27.948-0.64269 0.4505-3.18-11.904-4.4784-26.318-0.90497-12.504 0.52424-26.269 6.4841-30.972z" fill="#addbf7"/>
 <path d="m124.91 195.7c3.9473 4.0764 6.1545 14.958 4.725 28.815-1.4508 13.942-5.8695 27.033-6.6472 27.478-1.0063 0.43163-3.7543-11.719-4.9986-25.916-0.86723-12.367 0.81886-25.87 6.9208-30.377z" fill="#addbf7"/>
 <path d="m124.66 196.61c4.1831 3.899 6.6246 14.632 5.2571 28.287-1.3877 13.736-5.9447 26.583-7.0958 27.009-1.3697 0.41292-4.3285-11.534-5.5189-25.515-0.82949-12.23 1.1136-25.47 7.3576-29.781z" fill="#addbf7"/>
 <path d="m124.4 197.53c4.4188 3.7218 7.0946 14.307 5.7894 27.76-1.3247 13.53-6.0198 26.133-7.5444 26.54-1.7335 0.39405-4.903-11.349-6.0392-25.113-0.79175-12.092 1.4083-25.071 7.7941-29.186z" fill="#addbf7"/>
 <path d="m124.13 198.47c4.6544 3.5446 7.5645 13.981 6.3214 27.232-1.2616 13.325-6.0948 25.683-7.993 26.07-2.097 0.37534-5.4772-11.165-6.5593-24.712-0.75417-11.955 1.7029-24.671 8.2308-28.59z" fill="#addbf7"/>
 <path d="m123.86 199.42c4.89 3.3674 8.0345 13.656 6.8536 26.704-1.1985 13.119-6.17 25.233-8.4414 25.601-2.4606 0.35647-6.0517-10.98-7.0797-24.31-0.71627-11.818 1.9977-24.272 8.6675-27.995z" fill="#addbf7"/>
 <path d="m123.58 200.39c5.1257 3.1901 8.5043 13.33 7.3856 26.177-1.1354 12.913-6.245 24.783-8.89 25.131-2.824 0.33776-6.6259-10.795-7.5998-23.909-0.67869-11.681 2.2923-23.872 9.1042-27.4z" fill="#b0dcf7"/>
 <path d="m123.29 201.37c5.3613 3.0129 8.9745 13.004 7.9178 25.649-1.0723 12.708-6.32 24.333-9.3386 24.662-3.1874 0.31905-7.2002-10.61-8.12-23.507-0.64095-11.544 2.5869-23.473 9.5408-26.804z" fill="#b0dcf7"/>
 <path d="m122.99 202.38c5.5971 2.8356 9.4445 12.679 8.45 25.122-1.0092 12.502-6.3952 23.883-9.787 24.192-3.551 0.30033-7.7746-10.426-8.6402-23.106-0.60336-11.406 2.8816-23.073 9.9773-26.208z" fill="#b0dcf7"/>
 <path d="m122.68 203.4c5.8326 2.6584 9.9144 12.353 8.9821 24.594-0.9462 12.296-6.4704 23.433-10.236 23.723-3.9145 0.28146-8.3489-10.241-9.1605-22.704-0.56547-11.269 3.1763-22.674 10.414-25.613z" fill="#b0dcf7"/>
 <path d="m122.36 204.45c6.0684 2.4812 10.384 12.028 9.5143 24.067-0.88308 12.091-6.5454 22.982-10.684 23.253-4.2781 0.26275-8.9233-10.056-9.6808-22.303-0.52788-11.132 3.471-22.274 10.851-25.018z" fill="#b0dcf7"/>
 <path d="m122.03 205.52c6.3038 2.304 10.854 11.702 10.046 23.539-0.81997 11.885-6.6205 22.532-11.133 22.784-4.6415 0.24388-9.4976-9.8716-10.201-21.901-0.49014-10.995 3.7656-21.875 11.287-24.422z" fill="#b0dcf7"/>
 <path d="m121.69 206.61c6.5396 2.1266 11.324 11.377 10.578 23.012-0.75686 11.679-6.6955 22.082-11.581 22.315-5.0052 0.22517-10.072-9.6868-10.721-21.5-0.4524-10.858 4.0604-21.475 11.724-23.827z" fill="#b3def8"/>
 <path d="m121.33 207.73c6.7753 1.9495 11.794 11.051 11.111 22.484-0.69375 11.474-6.7705 21.632-12.03 21.845-5.3686 0.2063-10.646-9.5021-11.241-21.098-0.41466-10.72 4.355-21.076 12.161-23.231z" fill="#b3def8"/>
 <path d="m120.96 208.89c7.0109 1.7724 12.264 10.726 11.643 21.957-0.63064 11.268-6.8457 21.182-12.478 21.376-5.7322 0.18775-11.221-9.3173-11.762-20.696-0.37708-10.583 4.6496-20.676 12.597-22.636z" fill="#b3def8"/>
 <path d="m120.57 210.08c7.2466 1.5951 12.734 10.4 12.175 21.429-0.56769 11.062-6.9208 20.732-12.927 20.906-6.0956 0.16888-11.795-9.1326-12.282-20.295-0.33934-10.446 4.9443-20.277 13.034-22.04z" fill="#b3def8"/>
 <path d="m120.16 211.3c7.4822 1.418 13.204 10.074 12.707 20.902-0.50473 10.857-6.9958 20.282-13.376 20.437-6.4591 0.15017-12.369-8.9479-12.802-19.893-0.3016-10.309 5.2392-19.877 13.471-21.445z" fill="#b3def8"/>
 <path d="m119.74 212.57c7.7178 1.2405 13.674 9.7488 13.239 20.374-0.44162 10.651-7.071 19.832-13.824 19.967-6.8228 0.1313-12.944-8.7631-13.322-19.492-0.26386-10.172 5.5338-19.478 13.907-20.849z" fill="#b3def8"/>
 <path d="m119.28 213.89c7.9535 1.0634 14.144 9.4233 13.771 19.846-0.37851 10.445-7.146 19.382-14.273 19.498-7.1863 0.11259-13.518-8.5784-13.842-19.09-0.22628-10.034 5.8284-19.078 14.344-20.254z" fill="#b3def8"/>
 <path d="m118.81 215.26c8.1891 0.8861 14.614 9.0977 14.303 19.319-0.3154 10.24-7.221 18.932-14.721 19.029-7.5499 0.09372-14.092-8.3937-14.363-18.689-0.18838-9.8971 6.1232-18.679 14.781-19.658z" fill="#b3def8"/>
 <path d="m118.3 216.69c8.4249 0.70897 15.084 8.7723 14.836 18.791-0.25229 10.034-7.2962 18.482-15.17 18.559-7.9134 0.075-14.667-8.2089-14.883-18.287-0.1508-9.7599 6.4179-18.279 15.217-19.063z" fill="#b3def8"/>
 <path d="m117.76 218.2c8.6604 0.53169 15.554 8.4468 15.368 18.264-0.18933 9.8283-7.3714 18.032-15.618 18.09-8.277 0.05629-15.241-8.0242-15.403-17.886-0.11306-9.6228 6.7125-17.88 15.654-18.468z" fill="#b8dff8"/>
 <path d="m117.17 219.78c8.8962 0.35441 16.024 8.1211 15.9 17.736-0.12622 9.6226-7.4464 17.581-16.067 17.62-8.6404 0.03758-15.815-7.8394-15.923-17.484-0.07548-9.4854 7.0071-17.48 16.091-17.872z" fill="#b8dff8"/>
 <path d="m116.54 221.47c9.1316 0.17712 16.494 7.7955 16.432 17.209-0.06311 9.4169-7.5215 17.131-16.515 17.151-9.004 0.01871-16.39-7.6547-16.444-17.083-0.03758-9.3483 7.3019-17.08 16.527-17.276z" fill="#b8dff8"/>
 <path d="m132.82 239.95a16.964 16.681 0 1 0 -33.928 0 16.964 16.681 0 1 0 33.928 0" fill="#b8dff8"/>
 <path d="m104.89 218.82c-5.053 0.31492-16.452 2.6356-16.139-8.6745 19.85-1.2373 31.413-7.131 51.683-20.348-2.6949 13.257-27.73 28.536-35.543 29.023z" fill="#1f1a17"/>
 <path d="m92.997 115.21c2.5931-0.13288 8.4515-1.2581 8.2273 4.5401-10.186 0.5217-16.149 3.4784-26.619 10.141 1.4573-6.7827 14.383-14.476 18.392-14.681z" fill="#1f1a17"/>
 <path d="m127.13 114.28c-2.5931-0.13288-8.4515-1.2581-8.2273 4.5401 10.186 0.5217 16.149 3.4784 26.619 10.141-1.4573-6.7827-14.383-14.476-18.392-14.681z" fill="#1f1a17"/>
 <path d="m110.76 161.76a17.101 26.947 0 1 0 -34.202 0 17.101 26.947 0 1 0 34.202 0" fill="#fff" stroke="#1f1a17" stroke-width="2.797"/>
 <path d="m92.261 174.09c8.8595-0.98409 11.748-7.996 11.748-16.782 0-5.2344-0.8658-7.1375-4.2989-10.557-1.3244 2.6177-4.5022 11.866-6.0549 15.007l1.4032-16.198h-2.2376c-13.21 0-12.501 30.32-0.55944 28.53z" fill="#080808"/>
 <path d="m142.2 159.47a17.101 26.947 0 1 0 -34.202 0 17.101 26.947 0 1 0 34.202 0" fill="#fff" stroke="#1f1a17" stroke-width="2.797"/>
 <path d="m123.67 172.08c8.8595-0.98409 11.748-7.996 11.748-16.782 0-5.2344-0.8658-7.1375-4.2989-10.557-1.3244 2.6177-4.5022 11.866-6.0549 15.007l1.4032-16.198h-2.2376c-13.21 0-12.501 30.32-0.55944 28.53z" fill="#080808"/>
 <path d="m198.36 276.13c3.7689-32.093 2.6004-53.015-3.317-85.873 17.582 11.309 19.884 69.502 3.317 85.873z" fill="#a3d6f5"/>
</svg>
