<?xml version="1.0" encoding="UTF-8"?>
<svg width="210mm" height="297mm" viewBox="0 0 210 297" xmlns="http://www.w3.org/2000/svg">
 <g transform="matrix(.98744 0 0 .99769 12.152 1.2235)" stroke-width="1.0075">
  <path d="m86.435 66.808c-12.083 4.6847-25.368-0.29224-37.819 2.9041-10.221 0.39308-18.002 8.4393-25.085 14.844-5.6065 11.881-5.4686 25.808-6.9913 38.727 0.19229 26.805-4.8484 53.275-7.1876 79.916-1.3661 9.2718-1.384 18.838-3.0183 27.977-4.8694 10.253-9.9227 20.594-10.739 32.073l-5.6436 33.345c52.036 0.0773 104.08 0.4731 156.11-0.3769 13.188-0.35483 26.44-0.85826 39.587-1.041 6.1921-8.4771-0.0741-22.675-0.0534-33.189-7.6265-23.775-10.762-48.685-18.175-72.512-0.96674-12.926 4.019-26.519-4.2034-38.196-2.947-9.454 3.7643-19.549-0.7728-28.953-3.7803-12.068-4.3748-26.113-16.428-33.414-10.686-6.7211-17.735-22.735-31.998-21.308-9.2031 0.13497-18.395-0.42429-27.586-0.79687zm0.09814 2.7919c11.648 2.0228 24.723-0.25764 35.604 1.947 10.208 9.0813 20.415 18.163 30.623 27.244 2.4194 11.59 9.8414 22.879 8.7376 34.74-3.2672 9.7249-4.2644 19.448 3.2837 27.646 4.2282 9.1289-2.5422 19.541-0.44121 29.167 5.2499 17.734 7.8408 36.125 12.351 53.99 3.4675 10.023 9.0598 19.884 7.8174 30.783v18.14c-38.21 1.3774-76.428 1.7788-114.66 1.5474-24.862 0.0171-49.724 0.034-74.586 0.0509 1.9684-15.283 2.1779-30.963 5.2977-45.99 4.1428-9.0724 11.196-17.555 9.7988-28.078 2.5136-32.043 10.959-63.764 8.9291-96.092-0.63535-12.626 3.5936-24.766 5.6167-37.103 8.7244-4.5423 15.179-14.41 25.145-15.448 12.141-1.8363 24.675 1.3446 36.484-2.5436z" fill-rule="evenodd" opacity=".98"/>
  <path d="m99.123 295.77-104.79 0.0719 4.5226-45.36 10.365-20.424 0.72312-17.168 6.267-42.92 2.6514-28.12-0.48208-26.048 5.7849-28.712 13.257-9.472 13.98 4.144 19.524-5.328 14.462-1.776 18.078 5.92 16.632-2.96 9.1594 23.384-2.8925 14.208 4.8208 24.272-9.1594 24.568 5.3028 13.32-1.4462 26.936 3.8566 20.128 2.8924 30.488-6.7491 19.832-1.4462 13.024 2.6514 7.992z" fill="#494949" fill-rule="evenodd"/>
  <path d="m35.611 79.045 9.1643-7.252 15.324-1.332 18.629 0.148 7.8122-2.812 19.23 2.22 15.474-0.592 32.472 28.888 9.7733 30.977-4.2493 19.674 8.4985 15.488-2.9745 23.442 7.6487 23.023 4.2493 30.14 8.9234 24.279v28.884l-60.285 1.6439-17.629-12.193 6.9755-21.533-1.7816-5.64-2.0749-6.5688-6.4431-1.0612-11.984 10.275 3.2224-10.577 7.9035-4.075 3.7042-5.9477-4.6428-14.698-2.3468-7.4295-6.1915-2.5691-11.188 10.596 2.5066-10.106 7.753-5.6156 2.5068-6.9102-1.9737-29.898-12.714-3.1391-2.9121-9.7368 9.4449-23.537-3.4789-18.083 4.0498-17.126-12.373 8.6517-10.019-2.0317-11.108-24.329z" fill="#737373" fill-rule="evenodd"/>
  <path d="m138.71 295.91h42.918l0.84985-24.279-3.4977-14.953-0.0497-4.7136-2.585-5.3697-1.5162-5.9406-6.1229-11.626-12.574-21.025-26.77-5.4419-6.3739 26.791z" fill="#515151" fill-rule="evenodd"/>
  <path d="m182.05 295.7 18.803-11.804-1.6815-38.583-12.412-8.0168-6.3098-15.688-24.188-13.764c1.692 3.6495 3.5158 5.9889 3.5158 11.306 0 4.7812-0.41461 4.3295 6.5728 8.2177 2.5193 1.4019 2.8978 5.2656 2.7591 6.2965 2.371 1.0441 1.5494 0.40796 1.9775 1.8557 0.42813 2.612 0.55066 2.2661 2.0097 2.9378 0.78768 4.3694-0.12039 1.2836 1.6131 6.0233 1.6936 7.7223 7.1954 24.042 7.0395 40.596-0.0319 3.3917 0.64072 6.8908 0.3002 10.622z" fill="#737373" fill-rule="evenodd"/>
  <path d="m173.17 238.6-2.329 1.7973-1.2019 2.368-2.447 1.7573-2.2103 3.5707-4.2066 1.036 4.9577-0.59199 2.554-3.848 1.9432-1.3312 1.4409-2.3508 1.7846-0.95674z" fill="#3f3f3f" fill-rule="evenodd"/>
  <path d="m173.14 238.6 1.9254-1.125-1.6466 2.5901" fill="#515151" fill-opacity=".96078" fill-rule="evenodd"/>
  <path d="m180.77 271.13-2.216-0.518-1.4648-1.073-2.0282 0.37-1.8028 1.295-2.0657 0.888 2.3286-0.59199 1.7652-1.295 1.8028-0.333 1.1268 0.962 2.7042 1.073z" fill="#343434" fill-rule="evenodd"/>
  <path d="m180.76 271.05 0.571-0.70639-0.46477 1.6875" fill="#3a3a3a" fill-opacity=".80392" fill-rule="evenodd"/>
  <path d="m186.83 237.3-1.988 1.8188-1.0928 5.2973-1.446-2.9755-5.3703 4.9127-2e-3 -0.01c-0.0625 0.065-0.12638 0.12314-0.18938 0.18485l-0.32186 0.29475c9e-4 1e-3 1e-3 3e-3 2e-3 4e-3 -1.9266 1.7081-4.078 2.0954-6.5468 3.4201-4.4998 2.4146-9.8599 5.3162-15.423 5.7529l-8.5557 0.97465 9.146 3.498 12.969-4.935 10.946 0.98037c0.02 0.10987 0.0254 0.22645 0.0117 0.35082l8.339-4.7994-3.7977-2.2578 6.3463 0.79094 9.2964-5.35z" fill="#434343" fill-rule="evenodd"/>
  <path d="m134.67 279.37 3.9307 16.535 42.901-0.20831v0.31418l19.305-12.395-4.9579 1.3318-4.3566 1.258-3.8314 0.37026c-0.64149 0.44022-1.2189 1.9135-1.9241 3.1168-0.90226-0.88884-1.3885-1.8817-2.0827-1.8652l-2.1321 0.66616-3e-3 -0.1236-1.9921 0.15222-1.1404 1.587-2.2628-1.3261-3.9511 2.2252-0.40086-1.8921-6.7489 0.5174-7.4066-8.0324-7.9602 2.1456z" fill="#434343" fill-rule="evenodd"/>
  <path d="m171.11 216.01-12.29-3.2625-1.7424 4.3392-4.8773 2.111-4.8867 5.8605-7.1175-0.73256h-10.304l-6.6926 5.4419-0.21246-0.20929 6.2677-27.105 27.324 5.4944z" fill="#737373" fill-rule="evenodd"/>
  <path d="m147.32 225.06 2.2309 3.1396 0.3187 3.2442-1.0623 5.9651 1.8059-5.4419-0.53114-4.5-2.6007-3.2318z" fill="#3f3f3f" fill-rule="evenodd"/>
  <path d="m179.9287 221.32867-.95774.962-1.0892-.0185-.84507.24051.90141-.074.9953.11101-.13145.36999-.46949.407-1.446-.037 1.07042.222.61972.0185-.26291 1.11.69483.64749-.48826-.72149.30047-.9805.4507-.81399.9953-1.29501z" fill="#555" fill-rule="evenodd" opacity=".98"/>
  <path d="m167.21 244.47-0.8233-0.44477h-1.3279l-1.1951 0.28779-2.6292 0.57557 2.8948-0.26162 1.0623-0.23546h1.1154l0.61083 0.70639z" fill="#3f3f3f" fill-rule="evenodd" opacity=".98"/>
  <path d="m169.86445 243.52895-.0265.99418-.47804.78489.77018-.88953.0797-1.09885z" fill="#3f3f3f" fill-rule="evenodd" opacity=".98"/>
  <path d="m170.92676 240.41558-.90297.10466-.90296-.52326-1.8325.9157-.39836.54941.61083-.36628 1.64659-.73255.79673.49709.74362-.0523z" fill="#3f3f3f" fill-rule="evenodd" opacity=".98"/>
  <path d="m150.03209 227.52614 1.78404.4625 1.29577-.1295.71361 1.295-.18779 1.16549-.0939-1.12849-.69484-.8695-.88263.148-1.91548-.35151z" fill="#3f3f3f" fill-rule="evenodd" opacity=".98"/>
  <path d="m149.87 230.81-1.9918 0.34011-1.0623 1.2035-0.13279 1.2297 0.47804-1.0988 1.0092-0.99418 1.7794-0.2878z" fill="#3f3f3f" fill-rule="evenodd" opacity=".98"/>
  <path d="m177.05548 269.61347-.37559.86949-.93897.57351-.26291.0555.43193.0555.93896-.48101.56338-.7585z" fill="#343434" fill-rule="evenodd" opacity=".98"/>
  <path d="m175.10244 270.16847-.76996-.296-.82628.0925-.80752-.037-.69483.31451.73239-.2035.97652.0925.6385-.0555.4507.259z" fill="#343434" fill-rule="evenodd" opacity=".98"/>
  <path d="m140.02 298.12-15.324-66.896" fill="none"/>
  <g fill-rule="evenodd">
   <path d="m131.08 199.51c-0.40247 3e-3 -0.74922 0.29998-0.83532 0.71475-1.9302 9.2862-4.8603 18.379-6.6681 27.741-0.0246 0.12918-0.16646 1.6294-0.1375 1.7576 4.9807 22.313 9.226 39.484 14.15 61.819 0.0724 0.32768 1.7355 4.5599 2.0438 4.6461 9.4366 2.6448 17.71 0.64142 26.755 1.6971 0.058 6e-3 2.355-0.0295 2.4131-0.0356 2.6269-0.25983 4.61-0.47648 7.5735-0.40955 2.9635 0.067 4.2875 1.2705 6.9266-0.92246l2.3737-1.0836c5.0808-3.3921 6.031-4.47 11.101-7.8634 0.26003-0.17488 4.7306-3.2927 4.7166-3.6177-0.54771-13.215-1.9895-26.433-2.5622-39.651-0.0122-0.28334-0.14928-0.5444-0.37033-0.70587-2.734-1.9996-5.887-3.724-8.4964-5.829-2.6093-2.1051-4.6482-4.5288-5.3591-7.9778-1e-3 -7e-3 -3e-3 -0.0134-5e-3 -0.02-1.3941-6.0697-4.8038-12.504-10.927-14.69l0.17463 0.0844c-8.5443-5.5165-17.572-11.803-28.187-12.464l0.11153 0.0156c-4.868-0.98243-9.717-2.1709-14.621-3.1876-0.0568-0.0121-0.11461-0.0179-0.17255-0.0177zm1.9564 3.6529c4.5916 0.97004 4.2122 0.34768 8.8488 1.2834 4.4912 1.0064 3.8915 0.9258 3.929 0.92842 10.026 0.62449 14.534 4.6216 23.111 10.159 0.055 0.0357 4.7454 2.6958 4.8064 2.7177 5.3232 1.9006 6.5103 5.1254 7.8179 10.819l0.75917 1.3203c0.82198 3.9878 3.2688 7.009 6.0455 9.2491 2.6626 2.148 6.3334 3.3963 8.8719 5.2086 0.55675 12.883 0.0476 25.772 0.58085 38.661-4.9347 3.3052-8.8409 6.6379-13.774 9.9311-0.0247 0.0172-0.0486 0.0357-0.0715 0.0555-2.2146 1.8402-4.7518 2.1898-7.5516 2.1265-2.7611-0.0623-5.7128-0.55085-8.6079-0.28634-9.2964-1.0714-18.537 0.67097-27.24-1.5819-4.862-22.061-9.6172-43.401-14.539-65.456 1.7339-8.9526 3.6931-15.716 5.5729-24.679z"/>
   <path d="m124.7 231.22-17.736 8.5542-6.4645-20.114-24.088 29.791-10.303 1.0088-20.732 7.104-8.4131-1.48-16.225 7.844s-6.6103-4.292-7.2112-4.144c-0.60094 0.14799-10.216 5.92-10.216 5.92l1.6526-23.828-5.8591 10.804-4.507 45.436 145.58-0.44399z" fill="#434343"/>
   <path d="m159.18 149.22-3.187 3.2442-6.1614-0.20929-5.7365-3.6628-6.5864-0.73256 6.1614 1.2558 2.8682 2.3024-3.9306-0.94187-5.0991 1.5698 5.0991-0.73256 6.1614 1.9884 8.2861 0.83721 3.3994-3.1395z" fill="#434343"/>
   <path d="m155.73 185.01 1.823 1.8406-3.2894 0.43839-2.3581-1.2328 1.9317 1.3524-3.7907 1.369-8.3925-0.6284 7.7197 1.0725-0.97368 1.7009 1.3397-1.65 0.20043 0.028 4.3554-1.5698 3.9307-0.41893 7.2236 2.4072-0.3323-1.0044-6.8361-1.9608-0.1615 0.0217z" fill="#434343"/>
   <path d="m65.481 107.25-2.5496 4.186-2.9745 8.3721-9.7733 4.6047-3.6119 6.907-2.1246 10.047 3.8243-9 3.6119-6.2791 10.623-4.3954 1.6997-7.3256 4.6742-6.4884z" fill="#3b3b3b"/>
   <path d="m60.276 122.64 2.0184 3.6628-2.1246 3.8721 6.4801 7.8489-4.4617-7.6396 2.2309-4.0814-2.4433-4.814z" fill="#3b3b3b"/>
   <path d="m81.132 169.77-8.7136 8.584-4.8075 12.432 6.3098-11.248 11.718-10.064z" fill="#3b3b3b"/>
   <path d="m75.892 178 2.0184 3.9768-1.5935 3.2442 2.6558-3.5582-2.5496-4.814z" fill="#3b3b3b"/>
   <path d="m72.386 179.46h-3.3994l-4.6742 1.3605 4.9929-2.407 3.7181-0.10466z" fill="#3b3b3b"/>
   <path d="m87.581 100.47c-3.6225 7.4703-36.77 20.589 26.101 4.2014l15.03-1.854 24.232-4.9756" fill="#494949"/>
   <path d="m93.101 171.82 0.53116 4.7093 6.3783-1.6583 15.399 1.9722 17.634 1.7791" fill="#494949"/>
   <path d="m54.146 82.504 2.0396 4.4853 5.0803-3.1643 7.9404-0.25857 5.7483-2.4779" fill="#494949"/>
   <path d="m58.735 245.78c-2.3573 0.16029-4.3566 1.3144-6.3396 2.4518-3.1671 1.7323-6.3342 3.4645-9.5012 5.1968-1.2638 1.8065-2.509 3.6827-2.824 5.8963-1.4965 6.0066-2.993 12.013-4.4895 18.02 0.64158 2.8061 2.7427 4.9547 4.1638 7.4016 2.811 4.2858 5.622 8.5716 8.4329 12.857 1.0477 0.88487 2.6253 0.3127 3.9257 0.47588h40.773c1.45-0.30547 0.91111-2.1413 1.2301-3.2244 1.1212-9.5408 2.323-19.073 3.1158-28.648 0.18278-1.708 0.43928-3.7218-1.0248-4.955-3.5218-4.2837-7.0436-8.5674-10.565-12.851-1.0992-1.1385-2.5928-1.4128-4.1088-1.3906-6.0391-0.35775-12.075-0.90656-18.116-1.1416-1.558 0.0316-3.1143-0.0731-4.6716-0.0888zm0.74159 2.2326l23.903 2.0748c3.8433 4.5432 7.6865 9.0863 11.53 13.63-0.30365 4.9961-0.28056 10.018-0.82574 14.995-0.68576 5.8286-1.3715 11.657-2.0573 17.486h-42.463c-3.5476-6.1402-7.0951-12.28-10.643-18.421 1.9344-6.6709 3.8689-13.342 5.8033-20.013 4.9177-3.2505 9.8354-6.501 14.753-9.7515z"/>
   <path d="m92.832 297.12h-43.868l-11.117-19.24 6.0094-20.72 15.324-10.36 24.638 2.368 12.019 14.208-0.60094 13.32z" fill="#434343"/>
   <path d="m48.868 297.1c18.396-1.0443 26.102 0.97853 43.511-0.041 0.58135-0.11653 0.62034-1.0129 0.65651-1.7629-7.9609-19.476 0.36185-1.5521-6.2445-13.425-1.803-0.10599-0.65709-5.1065-2.4766-6.4245-1.8195-1.318-7.4885 3.3145-10.218 2.9982-3.6062-0.41782-6.4036-4.9611-10.076-5.4154-0.90392-0.11183-0.21581 4.7099-2.0398 6.5055-4.6034 1.4256-6.4664 0.86752-8.1807 2.4828 0.69195-4.6835 1.7423-10.032 0.1503-10.221-1.1308-0.13429-1.4042 4.0861-3.7951 6.062-0.60596 0.50077-2.079-2.3947-3.1846-2.3577-1.3094 0.0439-2.2394 2.9646-2.5382 2.9306-1.1807-0.13455 2.255-7.473 1.2343-7.5829-2.4788-0.26687-4.4378-0.45366-5.6447-0.52456l-2.1552 7.4732z" fill="#3f3f3f"/>
   <path d="m59.33 246.99c-0.83736 9.1786-4.1701 3.921-4.507 9.7679l1.2019 4.366c2.1784 1.3567 4.3568 2.7133 6.5352 4.07 2.6905 0.21204 0.27271 1.3917 5.3405 0.27661 5.0304-1.1068 0.82923 0.0518 9.3749-2.285-15.68 12.02 2.0922 2.1404 3.7199 2.743 2.051 0.5287 4.1105 1.5071 6.2704 1.2051 1.4001-0.13761 2.0362-1.9758 3.0713-3.0581 0.24258-1.1329-0.31017-3.7528-0.58892-4.8364-3.0033-4.675-3.1521-5.5761-6.1554-10.251-8.0876-0.66597-16.175-1.332-24.263-1.998z" fill="#737373"/>
   <path d="m94.363 263.78-3.7559 3.996-0.82629 3.7 1.5023-3.404 0.67606 1.184-0.37559 1.11 1.0516-1.554 0.60094 0.814-0.67606-1.85-0.4507 0.51798v-0.96199l3.9812-3.7z" fill="#3f3f3f"/>
   <path d="m52.982 253.86-2.1784 3.404-6.2347 2.294-2.0282 3.552 2.554-3.034 3.3803-1.258 0.4507 3.626-2.1033 1.332-3.5305 1.48 3.6056-0.66601 2.4789-1.702 2.1784 3.33-1.5023-4.07-0.37558-3.182 2.4789-0.88797 2.6291-4.144z" fill="#3f3f3f"/>
   <path d="m82.954 249.03-2.8357 1.85-3.1643 0.9435-4.6479 0.5365 4.6573 0.14799 0.30047 1.628 0.12206-1.9332 2.5915-0.83249 0.0094 1.1285 0.32864-1.2025 3.3052-2.257z" fill="#3f3f3f"/>
   <path d="m162.45 298.12c-1.9782-14.755-6.2083-12.856-11.254-27.612 4.3022 11.368 11.718 11.148 14.276 21.722 0.39709-9.494-2.8904-7.4626-2.5488-18.024 1.9942 10.731 3.9909 7.4993 7.4867 18.23 4.221-6.773 2.5895-5.0176 2.0388-14.174 4.0807 10.585 1.4934 6.4232 3.3653 14.174 6.3081-9.3894 1.5016-1.8524 11.48-19.376 0 0-5.3329 10.439-5.3342 21.049-2.6e-4 2.0869 3.1347 4.0109 3.1347 4.0109z" fill="#6ed137"/>
   <path d="m-11.377 298.02c0.99808-8.628 7.4651-18.806 6.5156-28.829 1.2985 7.7695 2.6219 12.389-2.1727 23.277 5.7891-8.2416 6.1484-7.074 6.8483-25.518 1.5 10.279 2.5965 15.512 3.0889 25.598 4.6594-6.2379 5.7989-10.773 6.3978-18.055 0.36321 10.59 0.18458 18.731 1.5939 18.137 4.3413-10.96 2.1919-10.112 3.9065-21.147 0.51232 12.143 2.7198 14.117 7.8155 23.841 6.1869-8.093 0.01341-11.479 0.27394-19.749 0.6109 7.3555 6.1379 10.183 8.7129 17.055 1.5417-10.204 0.3538-6.8548 2.1583-19.697-1.0862 13.082 4.9078 11.931 7.61 25.183z" fill="#6ed137"/>
   <path d="m84.302 297.53c-3.0097-14.844-5.1652-4.2565-9.9052-19.1 5.0338 13.412 6.8696 1.3918 12.602 14.803-0.72003-14.719-3.1663-5.0818-5.08-20.285 2.9709 14.714 6.8559 6.6195 10.971 21.333 3.074-16.224-4.8291-5.0926-4.797-24.163 1.7795 17.583 5.4901 5.7152 9.1788 22.814 3.8649-5.8854-0.34383-5.6395 2.6788-19.154 0.09173 10.168 1.9093 8.0022 2.1722 18.673 9.3548-10.137 1.7743-11.746 6.5984-22.919-0.48002 9.7734 1.488 19.283 1.975 28.583z" fill="#6ed137"/>
  </g>
 </g>
</svg>
